<?xml version="1.0" encoding="UTF-8"?>
<!DOCTYPE svg PUBLIC "-//W3C//DTD SVG 1.1//EN" "http://www.w3.org/Graphics/SVG/1.1/DTD/svg11.dtd">
<!-- Creator: CorelDRAW Home & Student X7 -->
<svg xmlns="http://www.w3.org/2000/svg" xml:space="preserve" width="1.27053in" height="1.27481in" version="1.1" style="shape-rendering:geometricPrecision; text-rendering:geometricPrecision; image-rendering:optimizeQuality; fill-rule:evenodd; clip-rule:evenodd"
viewBox="0 0 290 291"
 xmlns:xlink="http://www.w3.org/1999/xlink">
 <defs>
  <style type="text/css">
   <![CDATA[
    .str0 {stroke:#5B5B5B;stroke-width:22.2051;stroke-linecap:round;stroke-linejoin:round}
    .str1 {stroke:#5B5B5B;stroke-width:11.4478;stroke-linecap:round;stroke-linejoin:round}
    .fil0 {fill:none}
   ]]>
  </style>
 </defs>
 <g id="Layer_x0020_1">
  <metadata id="CorelCorpID_0Corel-Layer"/>
  <g id="_434019616">
   <path class="fil0 str0" d="M87 13c0,0 -2,32 13,57 36,59 32,82 -32,117 -50,27 -57,57 -57,93"/>
   <path class="fil0 str0" d="M58 278c0,-51 40,-41 75,-31 82,24 146,-45 146,-115 0,-66 -39,-100 -95,-68 -27,15 -41,-2 -47,-29 -2,-9 -2,-17 -2,-24"/>
   <path class="fil0 str1" d="M239 134c0,0 -3,84 -92,78"/>
   <path class="fil0 str1" d="M239 111c0,1 0,0 0,1"/>
  </g>
 </g>
</svg>
