<?xml version="1.0" encoding="UTF-8"?>
<!DOCTYPE svg PUBLIC "-//W3C//DTD SVG 1.1//EN" "http://www.w3.org/Graphics/SVG/1.1/DTD/svg11.dtd">
<!-- Creator: CorelDRAW Home & Student X7 -->
<svg xmlns="http://www.w3.org/2000/svg" xml:space="preserve" width="1.67801in" height="1.2954in" version="1.1" style="shape-rendering:geometricPrecision; text-rendering:geometricPrecision; image-rendering:optimizeQuality; fill-rule:evenodd; clip-rule:evenodd"
viewBox="0 0 1413 1091"
 xmlns:xlink="http://www.w3.org/1999/xlink">
 <defs>
  <style type="text/css">
   <![CDATA[
    .str2 {stroke:#5B5B5B;stroke-width:84.4109;stroke-linecap:round;stroke-linejoin:round}
    .str0 {stroke:#5B5B5B;stroke-width:81.8745;stroke-linecap:round;stroke-linejoin:round}
    .str1 {stroke:#5B5B5B;stroke-width:42.2104;stroke-linecap:round;stroke-linejoin:round}
    .fil0 {fill:none}
   ]]>
  </style>
 </defs>
 <g id="Layer_x0020_1">
  <metadata id="CorelCorpID_0Corel-Layer"/>
  <g id="_434023144">
   <path class="fil0 str0" d="M792 723c56,-202 531,-244 173,-682 -120,174 -637,328 -228,860"/>
   <path class="fil0 str1" d="M864 369c-177,204 -199,321 -109,522"/>
   <path class="fil0 str2" d="M987 697c169,-117 271,88 384,92 -131,361 -398,61 -548,206"/>
   <path class="fil0 str1" d="M1131 809c-171,-8 -275,7 -328,187"/>
   <path class="fil0 str0" d="M502 765c-186,-112 -377,-47 -461,131 369,348 477,-24 633,120"/>
   <path class="fil0 str1" d="M245 888c172,-8 286,-68 446,118"/>
  </g>
 </g>
</svg>
