<?xml version="1.0" encoding="UTF-8"?>
<!DOCTYPE svg PUBLIC "-//W3C//DTD SVG 1.1//EN" "http://www.w3.org/Graphics/SVG/1.1/DTD/svg11.dtd">
<!-- Creator: CorelDRAW Home & Student X7 -->
<svg xmlns="http://www.w3.org/2000/svg" xml:space="preserve" width="1.12667in" height="1.26944in" version="1.1" style="shape-rendering:geometricPrecision; text-rendering:geometricPrecision; image-rendering:optimizeQuality; fill-rule:evenodd; clip-rule:evenodd"
viewBox="0 0 136 153"
 xmlns:xlink="http://www.w3.org/1999/xlink">
 <defs>
  <style type="text/css">
   <![CDATA[
    .str0 {stroke:#5B5B5B;stroke-width:11.7048;stroke-linejoin:round}
    .str1 {stroke:#5B5B5B;stroke-width:6.03442;stroke-linecap:round;stroke-linejoin:round}
    .fil0 {fill:none;fill-rule:nonzero}
    .fil1 {fill:#5B5B5B}
   ]]>
  </style>
 </defs>
 <g id="Layer_x0020_1">
  <metadata id="CorelCorpID_0Corel-Layer"/>
  <g id="_433942464">
   <path class="fil0 str0" d="M93 60l26 0c6,0 11,5 11,11l0 65c0,6 -5,11 -11,11l-62 0 -41 0c-5,0 -10,-5 -10,-11l0 -65c0,-6 5,-11 10,-11l27 0"/>
   <line class="fil0 str1" x1="43" y1="49" x2="43" y2= "71" />
   <path class="fil1" d="M70 14c0,0 0,-2 -1,-2 -2,-7 -5,-10 -7,-9 -2,1 -3,4 1,16 -2,-2 -9,-7 -13,-6 -2,0 -5,2 -2,6 2,4 8,6 12,9 -12,4 -12,6 -8,28 1,4 1,5 6,8 -4,4 -6,4 -5,13 1,9 3,8 6,11 0,2 -1,6 -1,10 0,7 1,10 3,14 5,13 11,22 14,1 2,-12 10,-61 11,-77 1,-10 -2,-12 -12,-11 9,-11 19,-19 14,-24 -3,-4 -10,3 -18,13z"/>
   <line class="fil0 str1" x1="93" y1="49" x2="93" y2= "71" />
  </g>
 </g>
</svg>
